name Walk7.mot
datacolumns 19
datarows 22
range 1.58600000 1.60700000
endheader

                time	   L_ground_force_vx	   L_ground_force_vy	   L_ground_force_vz	   L_ground_force_px	   L_ground_force_py	   L_ground_force_pz	   R_ground_force_vx	   R_ground_force_vy	   R_ground_force_vz	   R_ground_force_px	   R_ground_force_py	   R_ground_force_pz	   L_ground_torque_x	   L_ground_torque_y	   L_ground_torque_z	   R_ground_torque_x	   R_ground_torque_y	   R_ground_torque_z	
          1.58600000	          0.00000000	          0.00000000	          0.00000000	          0.00000000	          0.00000000	          0.00000000	          0.00000000	          0.00000000	          0.00000000	          0.00000000	          0.00000000	          0.00000000	          0.00000000	          0.00000000	          0.00000000	          0.00000000	          0.00000000	          0.00000000	
          1.58700000	          0.00000000	          0.00000000	          0.00000000	          0.00000000	          0.00000000	          0.00000000	          0.00000000	          0.00000000	          0.00000000	          0.00000000	          0.00000000	          0.00000000	          0.00000000	          0.00000000	          0.00000000	          0.00000000	          0.00000000	          0.00000000	
          1.58800000	          0.00000000	          0.00000000	          0.00000000	          0.00000000	          0.00000000	          0.00000000	          2.65944291	         15.92002191	          1.76059897	         -0.43526842	          0.00000000	         -0.06660401	          0.00000000	          0.00000000	          0.00000000	          0.00000000	         -0.03001176	          0.00000000	
          1.58900000	          0.00000000	          0.00000000	          0.00000000	          0.00000000	          0.00000000	          0.00000000	          4.10625883	         24.81699523	          2.60485638	         -0.43532801	          0.00000000	         -0.06680354	          0.00000000	          0.00000000	          0.00000000	          0.00000000	         -0.05082098	          0.00000000	
          1.59000000	          0.00000000	          0.00000000	          0.00000000	          0.00000000	          0.00000000	          0.00000000	          5.62843912	         34.53744697	          3.42195664	         -0.43520067	          0.00000000	         -0.06716123	          0.00000000	          0.00000000	          0.00000000	          0.00000000	         -0.07441744	          0.00000000	
          1.59100000	          0.00000000	          0.00000000	          0.00000000	          0.00000000	          0.00000000	          0.00000000	          7.27179298	         45.71996676	          4.29059877	         -0.43495359	          0.00000000	         -0.06782042	          0.00000000	          0.00000000	          0.00000000	          0.00000000	         -0.09648718	          0.00000000	
          1.59200000	          0.00000000	          0.00000000	          0.00000000	          0.00000000	          0.00000000	          0.00000000	          9.10216817	         59.01723835	          5.29882140	         -0.43459162	          0.00000000	         -0.06868366	          0.00000000	          0.00000000	          0.00000000	          0.00000000	         -0.11184485	          0.00000000	
          1.59300000	          0.00000000	          0.00000000	          0.00000000	          0.00000000	          0.00000000	          0.00000000	         11.19316141	         74.79964545	          6.49741393	         -0.43401888	          0.00000000	         -0.06947381	          0.00000000	          0.00000000	          0.00000000	          0.00000000	         -0.11727236	          0.00000000	
          1.59400000	          0.00000000	          0.00000000	          0.00000000	          0.00000000	          0.00000000	          0.00000000	         13.59965569	         92.93172566	          7.87550151	         -0.43319141	          0.00000000	         -0.06998447	          0.00000000	          0.00000000	          0.00000000	          0.00000000	         -0.11359817	          0.00000000	
          1.59500000	          0.00000000	          0.00000000	          0.00000000	          0.00000000	          0.00000000	          0.00000000	         16.31152516	        112.66562426	          9.35329359	         -0.43221394	          0.00000000	         -0.07017335	          0.00000000	          0.00000000	          0.00000000	          0.00000000	         -0.10481046	          0.00000000	
          1.59600000	          0.00000000	          0.00000000	          0.00000000	          0.00000000	          0.00000000	          0.00000000	         19.22225907	        132.74322282	         10.79410478	         -0.43125812	          0.00000000	         -0.07013901	          0.00000000	          0.00000000	          0.00000000	          0.00000000	         -0.09467754	          0.00000000	
          1.59700000	          0.00000000	          0.00000000	          0.00000000	          0.00000000	          0.00000000	          0.00000000	         22.13881828	        151.69126772	         12.03296216	         -0.43045925	          0.00000000	         -0.07001160	          0.00000000	          0.00000000	          0.00000000	          0.00000000	         -0.08523064	          0.00000000	
          1.59800000	          0.00000000	          0.00000000	          0.00000000	          0.00000000	          0.00000000	          0.00000000	         24.82207877	        168.18378763	         12.91153799	         -0.42989134	          0.00000000	         -0.06986866	          0.00000000	          0.00000000	          0.00000000	          0.00000000	         -0.07829529	          0.00000000	
          1.59900000	          0.00000000	          0.00000000	          0.00000000	          0.00000000	          0.00000000	          0.00000000	         27.03847187	        181.35979589	         13.31626925	         -0.42956826	          0.00000000	         -0.06975654	          0.00000000	          0.00000000	          0.00000000	          0.00000000	         -0.07844658	          0.00000000	
          1.60000000	          0.00000000	          0.00000000	          0.00000000	          0.00000000	          0.00000000	          0.00000000	         28.60785171	        190.99361497	         13.21193238	         -0.42942277	          0.00000000	         -0.06970926	          0.00000000	          0.00000000	          0.00000000	          0.00000000	         -0.09227284	          0.00000000	
          1.60100000	          0.00000000	          0.00000000	          0.00000000	          0.00000000	          0.00000000	          0.00000000	         29.43197284	        197.43242537	         12.64872024	         -0.42931917	          0.00000000	         -0.06971266	          0.00000000	          0.00000000	          0.00000000	          0.00000000	         -0.12216263	          0.00000000	
          1.60200000	          0.00000000	          0.00000000	          0.00000000	          0.00000000	          0.00000000	          0.00000000	         29.49974343	        201.36377724	         11.73450521	         -0.42912475	          0.00000000	         -0.06970092	          0.00000000	          0.00000000	          0.00000000	          0.00000000	         -0.16283522	          0.00000000	
          1.60300000	          0.00000000	          0.00000000	          0.00000000	          0.00000000	          0.00000000	          0.00000000	         28.87387690	        203.58061809	         10.59458721	         -0.42876166	          0.00000000	         -0.06961759	          0.00000000	          0.00000000	          0.00000000	          0.00000000	         -0.20605724	          0.00000000	
          1.60400000	          0.00000000	          0.00000000	          0.00000000	          0.00000000	          0.00000000	          0.00000000	         27.66434223	        204.82979266	          9.34157531	         -0.42821829	          0.00000000	         -0.06943937	          0.00000000	          0.00000000	          0.00000000	          0.00000000	         -0.24778028	          0.00000000	
          1.60500000	          0.00000000	          0.00000000	          0.00000000	          0.00000000	          0.00000000	          0.00000000	         26.00437492	        205.72297455	          8.05748916	         -0.42754858	          0.00000000	         -0.06914110	          0.00000000	          0.00000000	          0.00000000	          0.00000000	         -0.28675273	          0.00000000	
          1.60600000	          0.00000000	          0.00000000	          0.00000000	          0.00000000	          0.00000000	          0.00000000	         24.03489046	        206.69684371	          6.79267304	         -0.42683021	          0.00000000	         -0.06872801	          0.00000000	          0.00000000	          0.00000000	          0.00000000	         -0.31714974	          0.00000000	
          1.60700000	          0.00000000	          0.00000000	          0.00000000	          0.00000000	          0.00000000	          0.00000000	         21.88243039	        208.03143634	          5.58150516	         -0.42612108	          0.00000000	         -0.06828313	          0.00000000	          0.00000000	          0.00000000	          0.00000000	         -0.33149931	          0.00000000	
